<svg viewBox="0 0 40 40" xmlns="http://www.w3.org/2000/svg" xmlns:xlink="http://www.w3.org/1999/xlink" width="40.000000" height="40.000000" fill="none">
	<rect id="telegram_icon_130816 2" width="40.000000" height="40.000000" x="0.000000" y="0.000000" fill="rgb(255,255,255)" fill-opacity="0" />
	<path id="Vector" d="M34 0L6 0C2.68629 0 0 2.68629 0 6L0 34C0 37.3137 2.68629 40 6 40L34 40C37.3137 40 40 37.3137 40 34L40 6C40 2.68629 37.3137 0 34 0Z" fill="rgb(55,174,226)" fill-rule="evenodd" />
	<path id="Vector" d="M15.5469 31.5625C14.6875 31.5625 14.7656 31.25 14.5312 30.4688L12.0312 22.2656L31.1719 11.0156" fill="rgb(200,218,234)" fill-rule="nonzero" />
	<path id="Vector" d="M15.5469 31.5625C16.0938 31.5625 16.4062 31.25 16.7969 30.9375L20.3125 27.5781L15.9375 24.9219" fill="rgb(169,201,221)" fill-rule="nonzero" />
	<path id="Vector" d="M15.9375 24.922L26.4844 32.6563C27.5782 33.3595 28.5157 32.9688 28.8282 31.5626L33.125 11.4063C33.5157 9.6876 32.4219 8.90635 31.25 9.45322L6.17191 19.1407C4.53129 19.7657 4.53129 20.7813 5.85941 21.172L12.3438 23.2032L27.1875 13.7501C27.8907 13.3595 28.5157 13.5157 28.0469 14.0626" fill="rgb(246,251,254)" fill-rule="nonzero" />
</svg>
